<svg xmlns="http://www.w3.org/2000/svg" width="32" height="32" viewBox="0 0 32 32" fill="none">
  <rect width="32" height="32" rx="7" fill="#6A4DE0"/>
  <path transform="translate(5.39 3.9) scale(0.851)" d="M20.1538 22.0416V13.7003C20.1538 11.0016 18.759 9.71362 17.3325 9.71362C15.9059 9.71362 14.4477 11.063 14.4477 13.7003L14.5428 22.0416H10.485V13.7003C10.485 11.0016 9.09021 9.71362 7.6637 9.71362C6.23715 9.71362 4.77891 11.063 4.77891 13.7003V22.0416H0.721191V7.59761C0.721191 6.95361 1.29181 6.40161 1.95753 6.40161C2.30624 6.40161 2.62325 6.52428 2.87685 6.76961L4.557 8.45628C5.72994 7.10694 7.34669 6.40161 8.9634 6.40161C10.8021 6.40161 12.609 7.35228 13.6234 9.25362C14.7964 7.35228 16.7301 6.40161 18.6322 6.40161C21.4219 6.40161 24.1482 8.54828 24.1482 12.9336H24.1165L24.2116 22.0416H20.1538Z" fill="#FFFFFF"/>
</svg>
