<svg xmlns="http://www.w3.org/2000/svg" width="106" height="23" viewBox="0 0 106 23" fill="none">
  <mask id="m0" style="mask-type:luminance" maskUnits="userSpaceOnUse" x="0" y="5" width="62" height="18">
    <path d="M61.4206 5.75H0V23H61.4206V5.75Z" fill="white"/>
  </mask>
  <g mask="url(#m0)">
    <path d="M20.1538 22.0416V13.7003C20.1538 11.0016 18.759 9.71362 17.3325 9.71362C15.9059 9.71362 14.4477 11.063 14.4477 13.7003L14.5428 22.0416H10.485V13.7003C10.485 11.0016 9.09021 9.71362 7.6637 9.71362C6.23715 9.71362 4.77891 11.063 4.77891 13.7003V22.0416H0.721191V7.59761C0.721191 6.95361 1.29181 6.40161 1.95753 6.40161C2.30624 6.40161 2.62325 6.52428 2.87685 6.76961L4.557 8.45628C5.72994 7.10694 7.34669 6.40161 8.9634 6.40161C10.8021 6.40161 12.609 7.35228 13.6234 9.25362C14.7964 7.35228 16.7301 6.40161 18.6322 6.40161C21.4219 6.40161 24.1482 8.54828 24.1482 12.9336H24.1165L24.2116 22.0416H20.1538ZM30.768 15.1416C31.1484 17.411 33.0822 18.4843 34.9525 18.4843C36.5693 18.4843 38.186 17.687 38.82 16.1536L42.6875 16.675C41.673 20.4163 38.3762 22.195 35.0476 22.195C30.8948 22.195 26.6469 19.435 26.6469 14.283C26.6469 9.16162 30.6412 6.43228 34.6355 6.43228C38.5664 6.43228 42.529 9.06962 42.6875 14.6816V15.1416H30.768ZM38.2811 12.2283C37.6471 10.7256 36.1889 9.95895 34.7306 9.95895C33.2724 9.95895 31.8141 10.7256 31.1167 12.2283H38.2811ZM56.3937 22.0416V13.7003C56.3937 11.0016 54.6819 9.71362 52.97 9.71362C51.2265 9.71362 49.4512 11.063 49.4512 13.7003V22.0416H45.3935V7.59761C45.3935 6.95361 45.9641 6.40161 46.6299 6.40161C46.9786 6.40161 47.2956 6.52428 47.5492 6.76961L49.261 8.48695C50.5608 7.10695 52.3677 6.40161 54.1747 6.40161C57.3131 6.40161 60.3881 8.51761 60.3881 12.9336H60.3564L60.4515 22.0416H56.3937Z" fill="#09090B"/>
  </g>
  <mask id="m1" style="mask-type:luminance" maskUnits="userSpaceOnUse" x="62" y="0" width="25" height="23">
    <path d="M86.6824 0H62.9067V23H86.6824V0Z" fill="white"/>
  </mask>
  <g mask="url(#m1)">
    <path d="M79.1615 14.283V20.999C79.1615 21.643 78.6226 22.1643 77.9569 22.1643C77.6082 22.1643 77.2594 21.9803 77.0375 21.7043L75.4208 19.7417C74.1211 21.3363 72.1556 22.1643 70.1584 22.1643C66.5762 22.1643 62.8989 19.5577 62.8989 14.2523C62.8989 9.89766 66.5445 6.40166 71.0461 6.40166C75.5159 6.40166 79.1615 9.89766 79.1615 14.283ZM75.1038 14.283V14.2523C75.1038 11.891 73.2651 9.95899 71.0461 9.95899C68.7953 9.95899 66.9566 11.891 66.9566 14.2523C66.9566 16.6137 68.7953 18.5457 71.0461 18.5457C73.2651 18.5457 75.0721 16.6443 75.1038 14.283ZM85.0559 4.50033C84.8023 4.59233 84.517 4.65366 84.2634 4.65366C83.4708 4.65366 82.71 4.19366 82.3613 3.42699C81.9175 2.41499 82.4247 1.24966 83.4708 0.820325C83.7245 0.728325 84.0098 0.666992 84.2634 0.666992C85.0876 0.666992 85.8484 1.12699 86.1654 1.89366C86.6092 2.90566 86.102 4.10166 85.0559 4.50033ZM86.2605 22.0417H82.2028V7.29099C82.2028 6.86757 82.5577 6.52433 82.9953 6.52433H85.468C85.9057 6.52433 86.2605 6.86757 86.2605 7.29099V22.0417Z" fill="#7C5CFF"/>
  </g>
  <mask id="m2" style="mask-type:luminance" maskUnits="userSpaceOnUse" x="89" y="5" width="17" height="18">
    <path d="M106 5.75H89.1587V23H106V5.75Z" fill="white"/>
  </mask>
  <g mask="url(#m2)">
    <path d="M105.414 14.283V20.999C105.414 21.643 104.875 22.1643 104.209 22.1643C103.86 22.1643 103.512 21.9803 103.29 21.7043L101.673 19.7416C100.373 21.3363 98.4078 22.1643 96.4109 22.1643C92.8287 22.1643 89.1514 19.5576 89.1514 14.2523C89.1514 9.89762 92.797 6.40161 97.2985 6.40161C101.768 6.40161 105.414 9.89762 105.414 14.283ZM101.356 14.283V14.2523C101.356 11.891 99.5174 9.95895 97.2985 9.95895C95.0477 9.95895 93.2091 11.891 93.2091 14.2523C93.2091 16.6136 95.0477 18.5456 97.2985 18.5456C99.5174 18.5456 101.324 16.6443 101.356 14.283Z" fill="#09090B"/>
  </g>
</svg>
